<?xml version="1.0" encoding="UTF-8" standalone="no"?>
<!DOCTYPE svg PUBLIC "-//W3C//DTD SVG 1.1//EN"
 "http://www.w3.org/Graphics/SVG/1.1/DTD/svg11.dtd">
<!-- Generated by graphviz version 2.40.1 (20161225.0304)
 -->
<!-- Title: cfpqExample Pages: 1 -->
<svg width="580pt" height="441pt"
 viewBox="0.00 0.00 580.00 441.00" xmlns="http://www.w3.org/2000/svg" xmlns:xlink="http://www.w3.org/1999/xlink">
<g id="graph0" class="graph" transform="scale(1 1) rotate(0) translate(4 437)">
<title>cfpqExample</title>
<polygon fill="#ffffff" stroke="transparent" points="-4,4 -4,-437 576,-437 576,4 -4,4"/>
<!-- director -->
<g id="node1" class="node">
<title>director</title>
<polygon fill="none" stroke="#000000" points="261.5,-.5 261.5,-69.5 368.5,-69.5 368.5,-.5 261.5,-.5"/>
<text text-anchor="middle" x="315" y="-54.3" font-family="Times,serif" font-size="14.00" fill="#000000">Role: director</text>
<polyline fill="none" stroke="#000000" points="261.5,-46.5 368.5,-46.5 "/>
<text text-anchor="middle" x="315" y="-31.3" font-family="Times,serif" font-size="14.00" fill="#000000">Salary: $10, 000</text>
<polyline fill="none" stroke="#000000" points="261.5,-23.5 368.5,-23.5 "/>
<text text-anchor="middle" x="315" y="-8.3" font-family="Times,serif" font-size="14.00" fill="#000000">Name: Bill</text>
</g>
<!-- manager1 -->
<g id="node2" class="node">
<title>manager1</title>
<polygon fill="none" stroke="#000000" points="177,-121.5 177,-190.5 277,-190.5 277,-121.5 177,-121.5"/>
<text text-anchor="middle" x="227" y="-175.3" font-family="Times,serif" font-size="14.00" fill="#000000">Role: manager</text>
<polyline fill="none" stroke="#000000" points="177,-167.5 277,-167.5 "/>
<text text-anchor="middle" x="227" y="-152.3" font-family="Times,serif" font-size="14.00" fill="#000000">Salary: $4, 150</text>
<polyline fill="none" stroke="#000000" points="177,-144.5 277,-144.5 "/>
<text text-anchor="middle" x="227" y="-129.3" font-family="Times,serif" font-size="14.00" fill="#000000">Name: Jill</text>
</g>
<!-- manager1&#45;&gt;director -->
<g id="edge1" class="edge">
<title>manager1&#45;&gt;director</title>
<path fill="none" stroke="#000000" d="M252.2173,-121.3263C262.0671,-107.7827 273.4629,-92.1135 283.8203,-77.8721"/>
<polygon fill="#000000" stroke="#000000" points="286.7279,-79.8248 289.779,-69.6788 281.0667,-75.7076 286.7279,-79.8248"/>
<text text-anchor="middle" x="289.5" y="-91.8" font-family="Times,serif" font-size="14.00" fill="#000000">boss</text>
</g>
<!-- manager2 -->
<g id="node3" class="node">
<title>manager2</title>
<polygon fill="none" stroke="#000000" points="354,-121.5 354,-190.5 454,-190.5 454,-121.5 354,-121.5"/>
<text text-anchor="middle" x="404" y="-175.3" font-family="Times,serif" font-size="14.00" fill="#000000">Role: manager</text>
<polyline fill="none" stroke="#000000" points="354,-167.5 454,-167.5 "/>
<text text-anchor="middle" x="404" y="-152.3" font-family="Times,serif" font-size="14.00" fill="#000000">Salary: $4, 450</text>
<polyline fill="none" stroke="#000000" points="354,-144.5 454,-144.5 "/>
<text text-anchor="middle" x="404" y="-129.3" font-family="Times,serif" font-size="14.00" fill="#000000">Name: Ann</text>
</g>
<!-- manager2&#45;&gt;director -->
<g id="edge2" class="edge">
<title>manager2&#45;&gt;director</title>
<path fill="none" stroke="#000000" d="M378.4962,-121.3263C368.5344,-107.7827 357.0091,-92.1135 346.534,-77.8721"/>
<polygon fill="#000000" stroke="#000000" points="349.2522,-75.6606 340.5076,-69.6788 343.6133,-79.8082 349.2522,-75.6606"/>
<text text-anchor="middle" x="377.5" y="-91.8" font-family="Times,serif" font-size="14.00" fill="#000000">boss</text>
</g>
<!-- operator1 -->
<g id="node4" class="node">
<title>operator1</title>
<polygon fill="none" stroke="#000000" points="0,-242.5 0,-311.5 100,-311.5 100,-242.5 0,-242.5"/>
<text text-anchor="middle" x="50" y="-296.3" font-family="Times,serif" font-size="14.00" fill="#000000">Role: operator</text>
<polyline fill="none" stroke="#000000" points="0,-288.5 100,-288.5 "/>
<text text-anchor="middle" x="50" y="-273.3" font-family="Times,serif" font-size="14.00" fill="#000000">Salary: $2, 100</text>
<polyline fill="none" stroke="#000000" points="0,-265.5 100,-265.5 "/>
<text text-anchor="middle" x="50" y="-250.3" font-family="Times,serif" font-size="14.00" fill="#000000">Name: Tim</text>
</g>
<!-- operator1&#45;&gt;manager1 -->
<g id="edge3" class="edge">
<title>operator1&#45;&gt;manager1</title>
<path fill="none" stroke="#000000" d="M100.2476,-242.6499C121.545,-228.0907 146.5021,-211.0296 168.6123,-195.9148"/>
<polygon fill="#000000" stroke="#000000" points="170.6531,-198.7593 176.9333,-190.2264 166.7027,-192.9806 170.6531,-198.7593"/>
<text text-anchor="middle" x="162.5" y="-212.8" font-family="Times,serif" font-size="14.00" fill="#000000">boss</text>
</g>
<!-- operator2 -->
<g id="node5" class="node">
<title>operator2</title>
<polygon fill="none" stroke="#000000" points="118,-242.5 118,-311.5 218,-311.5 218,-242.5 118,-242.5"/>
<text text-anchor="middle" x="168" y="-296.3" font-family="Times,serif" font-size="14.00" fill="#000000">Role: operator</text>
<polyline fill="none" stroke="#000000" points="118,-288.5 218,-288.5 "/>
<text text-anchor="middle" x="168" y="-273.3" font-family="Times,serif" font-size="14.00" fill="#000000">Salary: $2, 100</text>
<polyline fill="none" stroke="#000000" points="118,-265.5 218,-265.5 "/>
<text text-anchor="middle" x="168" y="-250.3" font-family="Times,serif" font-size="14.00" fill="#000000">Name: Roy</text>
</g>
<!-- operator2&#45;&gt;manager1 -->
<g id="edge4" class="edge">
<title>operator2&#45;&gt;manager1</title>
<path fill="none" stroke="#000000" d="M184.907,-242.3263C191.3875,-229.0359 198.866,-213.6985 205.7053,-199.6721"/>
<polygon fill="#000000" stroke="#000000" points="208.8536,-201.2012 210.0905,-190.6788 202.5617,-198.1332 208.8536,-201.2012"/>
<text text-anchor="middle" x="214.5" y="-212.8" font-family="Times,serif" font-size="14.00" fill="#000000">boss</text>
</g>
<!-- operator3 -->
<g id="node6" class="node">
<title>operator3</title>
<polygon fill="none" stroke="#000000" points="236,-242.5 236,-311.5 336,-311.5 336,-242.5 236,-242.5"/>
<text text-anchor="middle" x="286" y="-296.3" font-family="Times,serif" font-size="14.00" fill="#000000">Role: operator</text>
<polyline fill="none" stroke="#000000" points="236,-288.5 336,-288.5 "/>
<text text-anchor="middle" x="286" y="-273.3" font-family="Times,serif" font-size="14.00" fill="#000000">Salary: $2, 100</text>
<polyline fill="none" stroke="#000000" points="236,-265.5 336,-265.5 "/>
<text text-anchor="middle" x="286" y="-250.3" font-family="Times,serif" font-size="14.00" fill="#000000">Name: Helen</text>
</g>
<!-- operator3&#45;&gt;manager1 -->
<g id="edge5" class="edge">
<title>operator3&#45;&gt;manager1</title>
<path fill="none" stroke="#000000" d="M269.093,-242.3263C262.6125,-229.0359 255.134,-213.6985 248.2947,-199.6721"/>
<polygon fill="#000000" stroke="#000000" points="251.4383,-198.1332 243.9095,-190.6788 245.1464,-201.2012 251.4383,-198.1332"/>
<text text-anchor="middle" x="273.5" y="-212.8" font-family="Times,serif" font-size="14.00" fill="#000000">boss</text>
</g>
<!-- operator4 -->
<g id="node7" class="node">
<title>operator4</title>
<polygon fill="none" stroke="#000000" points="354,-242.5 354,-311.5 454,-311.5 454,-242.5 354,-242.5"/>
<text text-anchor="middle" x="404" y="-296.3" font-family="Times,serif" font-size="14.00" fill="#000000">Role: operator</text>
<polyline fill="none" stroke="#000000" points="354,-288.5 454,-288.5 "/>
<text text-anchor="middle" x="404" y="-273.3" font-family="Times,serif" font-size="14.00" fill="#000000">Salary: $2, 000</text>
<polyline fill="none" stroke="#000000" points="354,-265.5 454,-265.5 "/>
<text text-anchor="middle" x="404" y="-250.3" font-family="Times,serif" font-size="14.00" fill="#000000">Name: Evelyn</text>
</g>
<!-- operator4&#45;&gt;manager2 -->
<g id="edge6" class="edge">
<title>operator4&#45;&gt;manager2</title>
<path fill="none" stroke="#000000" d="M404,-242.3263C404,-229.4156 404,-214.5732 404,-200.8775"/>
<polygon fill="#000000" stroke="#000000" points="407.5001,-200.6788 404,-190.6788 400.5001,-200.6788 407.5001,-200.6788"/>
<text text-anchor="middle" x="416.5" y="-212.8" font-family="Times,serif" font-size="14.00" fill="#000000">boss</text>
</g>
<!-- operator5 -->
<g id="node8" class="node">
<title>operator5</title>
<polygon fill="none" stroke="#000000" points="472,-242.5 472,-311.5 572,-311.5 572,-242.5 472,-242.5"/>
<text text-anchor="middle" x="522" y="-296.3" font-family="Times,serif" font-size="14.00" fill="#000000">Role: operator</text>
<polyline fill="none" stroke="#000000" points="472,-288.5 572,-288.5 "/>
<text text-anchor="middle" x="522" y="-273.3" font-family="Times,serif" font-size="14.00" fill="#000000">Salary: $2, 150</text>
<polyline fill="none" stroke="#000000" points="472,-265.5 572,-265.5 "/>
<text text-anchor="middle" x="522" y="-250.3" font-family="Times,serif" font-size="14.00" fill="#000000">Name: Pol</text>
</g>
<!-- operator5&#45;&gt;manager2 -->
<g id="edge7" class="edge">
<title>operator5&#45;&gt;manager2</title>
<path fill="none" stroke="#000000" d="M488.1859,-242.3263C474.7313,-228.5296 459.1255,-212.527 445.0318,-198.075"/>
<polygon fill="#000000" stroke="#000000" points="447.3065,-195.3945 437.819,-190.6788 442.295,-200.2817 447.3065,-195.3945"/>
<text text-anchor="middle" x="483.5" y="-212.8" font-family="Times,serif" font-size="14.00" fill="#000000">boss</text>
</g>
<!-- trainee1 -->
<g id="node9" class="node">
<title>trainee1</title>
<polygon fill="none" stroke="#000000" points="295,-363.5 295,-432.5 395,-432.5 395,-363.5 295,-363.5"/>
<text text-anchor="middle" x="345" y="-417.3" font-family="Times,serif" font-size="14.00" fill="#000000">Role: trainee</text>
<polyline fill="none" stroke="#000000" points="295,-409.5 395,-409.5 "/>
<text text-anchor="middle" x="345" y="-394.3" font-family="Times,serif" font-size="14.00" fill="#000000">Salary: $1, 150</text>
<polyline fill="none" stroke="#000000" points="295,-386.5 395,-386.5 "/>
<text text-anchor="middle" x="345" y="-371.3" font-family="Times,serif" font-size="14.00" fill="#000000">Name: James</text>
</g>
<!-- trainee1&#45;&gt;operator4 -->
<g id="edge8" class="edge">
<title>trainee1&#45;&gt;operator4</title>
<path fill="none" stroke="#000000" d="M361.907,-363.3263C368.3875,-350.0359 375.866,-334.6985 382.7053,-320.6721"/>
<polygon fill="#000000" stroke="#000000" points="385.8536,-322.2012 387.0905,-311.6788 379.5617,-319.1332 385.8536,-322.2012"/>
<text text-anchor="middle" x="391.5" y="-333.8" font-family="Times,serif" font-size="14.00" fill="#000000">boss</text>
</g>
<!-- trainee2 -->
<g id="node10" class="node">
<title>trainee2</title>
<polygon fill="none" stroke="#000000" points="413,-363.5 413,-432.5 513,-432.5 513,-363.5 413,-363.5"/>
<text text-anchor="middle" x="463" y="-417.3" font-family="Times,serif" font-size="14.00" fill="#000000">Role: trainee</text>
<polyline fill="none" stroke="#000000" points="413,-409.5 513,-409.5 "/>
<text text-anchor="middle" x="463" y="-394.3" font-family="Times,serif" font-size="14.00" fill="#000000">Salary: $1, 000</text>
<polyline fill="none" stroke="#000000" points="413,-386.5 513,-386.5 "/>
<text text-anchor="middle" x="463" y="-371.3" font-family="Times,serif" font-size="14.00" fill="#000000">Name: Ella</text>
</g>
<!-- trainee2&#45;&gt;operator4 -->
<g id="edge9" class="edge">
<title>trainee2&#45;&gt;operator4</title>
<path fill="none" stroke="#000000" d="M446.093,-363.3263C439.6125,-350.0359 432.134,-334.6985 425.2947,-320.6721"/>
<polygon fill="#000000" stroke="#000000" points="428.4383,-319.1332 420.9095,-311.6788 422.1464,-322.2012 428.4383,-319.1332"/>
<text text-anchor="middle" x="450.5" y="-333.8" font-family="Times,serif" font-size="14.00" fill="#000000">boss</text>
</g>
</g>
</svg>
