<?xml version="1.0" encoding="UTF-8" standalone="no"?>
<!DOCTYPE svg PUBLIC "-//W3C//DTD SVG 1.1//EN"
 "http://www.w3.org/Graphics/SVG/1.1/DTD/svg11.dtd">
<!-- Generated by graphviz version 2.40.1 (20161225.0304)
 -->
<!-- Title: cfpqExample Pages: 1 -->
<svg width="580pt" height="349pt"
 viewBox="0.00 0.00 580.00 349.00" xmlns="http://www.w3.org/2000/svg" xmlns:xlink="http://www.w3.org/1999/xlink">
<g id="graph0" class="graph" transform="scale(1 1) rotate(0) translate(4 345)">
<title>cfpqExample</title>
<polygon fill="#ffffff" stroke="transparent" points="-4,4 -4,-345 576,-345 576,4 -4,4"/>
<!-- director -->
<g id="node1" class="node">
<title>director</title>
<polygon fill="none" stroke="#000000" points="261.5,-.5 261.5,-46.5 368.5,-46.5 368.5,-.5 261.5,-.5"/>
<text text-anchor="middle" x="315" y="-31.3" font-family="Times,serif" font-size="14.00" fill="#000000">Role: director</text>
<polyline fill="none" stroke="#000000" points="261.5,-23.5 368.5,-23.5 "/>
<text text-anchor="middle" x="315" y="-8.3" font-family="Times,serif" font-size="14.00" fill="#000000">Salary: $10, 000</text>
</g>
<!-- manager1 -->
<g id="node2" class="node">
<title>manager1</title>
<polygon fill="none" stroke="#000000" points="177,-98.5 177,-144.5 277,-144.5 277,-98.5 177,-98.5"/>
<text text-anchor="middle" x="227" y="-129.3" font-family="Times,serif" font-size="14.00" fill="#000000">Role: manager</text>
<polyline fill="none" stroke="#000000" points="177,-121.5 277,-121.5 "/>
<text text-anchor="middle" x="227" y="-106.3" font-family="Times,serif" font-size="14.00" fill="#000000">Salary: $4, 150</text>
</g>
<!-- manager1&#45;&gt;director -->
<g id="edge1" class="edge">
<title>manager1&#45;&gt;director</title>
<path fill="none" stroke="#000000" d="M247.8548,-98.2754C259.6908,-85.0943 274.6506,-68.4346 287.444,-54.1874"/>
<polygon fill="#000000" stroke="#000000" points="290.2178,-56.3369 294.2949,-46.5579 285.0095,-51.66 290.2178,-56.3369"/>
<text text-anchor="middle" x="289.5" y="-68.8" font-family="Times,serif" font-size="14.00" fill="#000000">boss</text>
</g>
<!-- manager2 -->
<g id="node3" class="node">
<title>manager2</title>
<polygon fill="none" stroke="#000000" points="354,-98.5 354,-144.5 454,-144.5 454,-98.5 354,-98.5"/>
<text text-anchor="middle" x="404" y="-129.3" font-family="Times,serif" font-size="14.00" fill="#000000">Role: manager</text>
<polyline fill="none" stroke="#000000" points="354,-121.5 454,-121.5 "/>
<text text-anchor="middle" x="404" y="-106.3" font-family="Times,serif" font-size="14.00" fill="#000000">Salary: $4, 450</text>
</g>
<!-- manager2&#45;&gt;director -->
<g id="edge2" class="edge">
<title>manager2&#45;&gt;director</title>
<path fill="none" stroke="#000000" d="M382.9082,-98.2754C370.9377,-85.0943 355.8079,-68.4346 342.8692,-54.1874"/>
<polygon fill="#000000" stroke="#000000" points="345.2544,-51.6077 335.9404,-46.5579 340.0724,-56.3138 345.2544,-51.6077"/>
<text text-anchor="middle" x="377.5" y="-68.8" font-family="Times,serif" font-size="14.00" fill="#000000">boss</text>
</g>
<!-- operator1 -->
<g id="node4" class="node">
<title>operator1</title>
<polygon fill="none" stroke="#000000" points="0,-196.5 0,-242.5 100,-242.5 100,-196.5 0,-196.5"/>
<text text-anchor="middle" x="50" y="-227.3" font-family="Times,serif" font-size="14.00" fill="#000000">Role: operator</text>
<polyline fill="none" stroke="#000000" points="0,-219.5 100,-219.5 "/>
<text text-anchor="middle" x="50" y="-204.3" font-family="Times,serif" font-size="14.00" fill="#000000">Salary: $2, 100</text>
</g>
<!-- operator1&#45;&gt;manager1 -->
<g id="edge3" class="edge">
<title>operator1&#45;&gt;manager1</title>
<path fill="none" stroke="#000000" d="M91.9465,-196.2754C117.2962,-182.24 149.7696,-164.2604 176.5205,-149.4491"/>
<polygon fill="#000000" stroke="#000000" points="178.3014,-152.4638 185.3546,-144.5579 174.9106,-146.3398 178.3014,-152.4638"/>
<text text-anchor="middle" x="162.5" y="-166.8" font-family="Times,serif" font-size="14.00" fill="#000000">boss</text>
</g>
<!-- operator2 -->
<g id="node5" class="node">
<title>operator2</title>
<polygon fill="none" stroke="#000000" points="118,-196.5 118,-242.5 218,-242.5 218,-196.5 118,-196.5"/>
<text text-anchor="middle" x="168" y="-227.3" font-family="Times,serif" font-size="14.00" fill="#000000">Role: operator</text>
<polyline fill="none" stroke="#000000" points="118,-219.5 218,-219.5 "/>
<text text-anchor="middle" x="168" y="-204.3" font-family="Times,serif" font-size="14.00" fill="#000000">Salary: $2, 100</text>
</g>
<!-- operator2&#45;&gt;manager1 -->
<g id="edge4" class="edge">
<title>operator2&#45;&gt;manager1</title>
<path fill="none" stroke="#000000" d="M181.9822,-196.2754C189.6973,-183.4605 199.392,-167.3574 207.8069,-153.3801"/>
<polygon fill="#000000" stroke="#000000" points="210.9589,-154.9304 213.1182,-144.5579 204.9618,-151.3199 210.9589,-154.9304"/>
<text text-anchor="middle" x="214.5" y="-166.8" font-family="Times,serif" font-size="14.00" fill="#000000">boss</text>
</g>
<!-- operator3 -->
<g id="node6" class="node">
<title>operator3</title>
<polygon fill="none" stroke="#000000" points="236,-196.5 236,-242.5 336,-242.5 336,-196.5 236,-196.5"/>
<text text-anchor="middle" x="286" y="-227.3" font-family="Times,serif" font-size="14.00" fill="#000000">Role: operator</text>
<polyline fill="none" stroke="#000000" points="236,-219.5 336,-219.5 "/>
<text text-anchor="middle" x="286" y="-204.3" font-family="Times,serif" font-size="14.00" fill="#000000">Salary: $2, 100</text>
</g>
<!-- operator3&#45;&gt;manager1 -->
<g id="edge5" class="edge">
<title>operator3&#45;&gt;manager1</title>
<path fill="none" stroke="#000000" d="M272.0178,-196.2754C264.3027,-183.4605 254.608,-167.3574 246.1931,-153.3801"/>
<polygon fill="#000000" stroke="#000000" points="249.0382,-151.3199 240.8818,-144.5579 243.0411,-154.9304 249.0382,-151.3199"/>
<text text-anchor="middle" x="273.5" y="-166.8" font-family="Times,serif" font-size="14.00" fill="#000000">boss</text>
</g>
<!-- operator4 -->
<g id="node7" class="node">
<title>operator4</title>
<polygon fill="none" stroke="#000000" points="354,-196.5 354,-242.5 454,-242.5 454,-196.5 354,-196.5"/>
<text text-anchor="middle" x="404" y="-227.3" font-family="Times,serif" font-size="14.00" fill="#000000">Role: operator</text>
<polyline fill="none" stroke="#000000" points="354,-219.5 454,-219.5 "/>
<text text-anchor="middle" x="404" y="-204.3" font-family="Times,serif" font-size="14.00" fill="#000000">Salary: $2, 000</text>
</g>
<!-- operator4&#45;&gt;manager2 -->
<g id="edge6" class="edge">
<title>operator4&#45;&gt;manager2</title>
<path fill="none" stroke="#000000" d="M404,-196.2754C404,-183.8266 404,-168.2749 404,-154.5833"/>
<polygon fill="#000000" stroke="#000000" points="407.5001,-154.5579 404,-144.5579 400.5001,-154.558 407.5001,-154.5579"/>
<text text-anchor="middle" x="416.5" y="-166.8" font-family="Times,serif" font-size="14.00" fill="#000000">boss</text>
</g>
<!-- operator5 -->
<g id="node8" class="node">
<title>operator5</title>
<polygon fill="none" stroke="#000000" points="472,-196.5 472,-242.5 572,-242.5 572,-196.5 472,-196.5"/>
<text text-anchor="middle" x="522" y="-227.3" font-family="Times,serif" font-size="14.00" fill="#000000">Role: operator</text>
<polyline fill="none" stroke="#000000" points="472,-219.5 572,-219.5 "/>
<text text-anchor="middle" x="522" y="-204.3" font-family="Times,serif" font-size="14.00" fill="#000000">Salary: $2, 150</text>
</g>
<!-- operator5&#45;&gt;manager2 -->
<g id="edge7" class="edge">
<title>operator5&#45;&gt;manager2</title>
<path fill="none" stroke="#000000" d="M494.0356,-196.2754C477.7237,-182.7282 456.9872,-165.5063 439.5274,-151.0058"/>
<polygon fill="#000000" stroke="#000000" points="441.6927,-148.2545 431.7636,-144.5579 437.2204,-153.6395 441.6927,-148.2545"/>
<text text-anchor="middle" x="483.5" y="-166.8" font-family="Times,serif" font-size="14.00" fill="#000000">boss</text>
</g>
<!-- trainee1 -->
<g id="node9" class="node">
<title>trainee1</title>
<polygon fill="none" stroke="#000000" points="295,-294.5 295,-340.5 395,-340.5 395,-294.5 295,-294.5"/>
<text text-anchor="middle" x="345" y="-325.3" font-family="Times,serif" font-size="14.00" fill="#000000">Role: trainee</text>
<polyline fill="none" stroke="#000000" points="295,-317.5 395,-317.5 "/>
<text text-anchor="middle" x="345" y="-302.3" font-family="Times,serif" font-size="14.00" fill="#000000">Salary: $1, 150</text>
</g>
<!-- trainee1&#45;&gt;operator4 -->
<g id="edge8" class="edge">
<title>trainee1&#45;&gt;operator4</title>
<path fill="none" stroke="#000000" d="M358.9822,-294.2754C366.6973,-281.4605 376.392,-265.3574 384.8069,-251.3801"/>
<polygon fill="#000000" stroke="#000000" points="387.9589,-252.9304 390.1182,-242.5579 381.9618,-249.3199 387.9589,-252.9304"/>
<text text-anchor="middle" x="391.5" y="-264.8" font-family="Times,serif" font-size="14.00" fill="#000000">boss</text>
</g>
<!-- trainee2 -->
<g id="node10" class="node">
<title>trainee2</title>
<polygon fill="none" stroke="#000000" points="413,-294.5 413,-340.5 513,-340.5 513,-294.5 413,-294.5"/>
<text text-anchor="middle" x="463" y="-325.3" font-family="Times,serif" font-size="14.00" fill="#000000">Role: trainee</text>
<polyline fill="none" stroke="#000000" points="413,-317.5 513,-317.5 "/>
<text text-anchor="middle" x="463" y="-302.3" font-family="Times,serif" font-size="14.00" fill="#000000">Salary: $1, 000</text>
</g>
<!-- trainee2&#45;&gt;operator4 -->
<g id="edge9" class="edge">
<title>trainee2&#45;&gt;operator4</title>
<path fill="none" stroke="#000000" d="M449.0178,-294.2754C441.3027,-281.4605 431.608,-265.3574 423.1931,-251.3801"/>
<polygon fill="#000000" stroke="#000000" points="426.0382,-249.3199 417.8818,-242.5579 420.0411,-252.9304 426.0382,-249.3199"/>
<text text-anchor="middle" x="450.5" y="-264.8" font-family="Times,serif" font-size="14.00" fill="#000000">boss</text>
</g>
</g>
</svg>
