<?xml version="1.0" encoding="UTF-8" standalone="no"?>
<!DOCTYPE svg PUBLIC "-//W3C//DTD SVG 1.1//EN"
 "http://www.w3.org/Graphics/SVG/1.1/DTD/svg11.dtd">
<!-- Generated by graphviz version 2.40.1 (20161225.0304)
 -->
<!-- Title: cfpqExample Pages: 1 -->
<svg width="620pt" height="441pt"
 viewBox="0.00 0.00 620.00 441.00" xmlns="http://www.w3.org/2000/svg" xmlns:xlink="http://www.w3.org/1999/xlink">
<g id="graph0" class="graph" transform="scale(1 1) rotate(0) translate(4 437)">
<title>cfpqExample</title>
<polygon fill="#ffffff" stroke="transparent" points="-4,4 -4,-437 616,-437 616,4 -4,4"/>
<!-- director -->
<g id="node1" class="node">
<title>director</title>
<polygon fill="none" stroke="#000000" points="275.5,-.5 275.5,-69.5 388.5,-69.5 388.5,-.5 275.5,-.5"/>
<text text-anchor="middle" x="332" y="-54.3" font-family="Times,serif" font-size="14.00" fill="#000000">role = &#39;director&#39;</text>
<polyline fill="none" stroke="#000000" points="275.5,-46.5 388.5,-46.5 "/>
<text text-anchor="middle" x="332" y="-31.3" font-family="Times,serif" font-size="14.00" fill="#000000">salary = $10, 000</text>
<polyline fill="none" stroke="#000000" points="275.5,-23.5 388.5,-23.5 "/>
<text text-anchor="middle" x="332" y="-8.3" font-family="Times,serif" font-size="14.00" fill="#000000">name = &#39;Bill&#39;</text>
</g>
<!-- manager1 -->
<g id="node2" class="node">
<title>manager1</title>
<polygon fill="none" stroke="#000000" points="186,-121.5 186,-190.5 292,-190.5 292,-121.5 186,-121.5"/>
<text text-anchor="middle" x="239" y="-175.3" font-family="Times,serif" font-size="14.00" fill="#000000">role = &#39;manager&#39;</text>
<polyline fill="none" stroke="#000000" points="186,-167.5 292,-167.5 "/>
<text text-anchor="middle" x="239" y="-152.3" font-family="Times,serif" font-size="14.00" fill="#000000">salary = $4, 150</text>
<polyline fill="none" stroke="#000000" points="186,-144.5 292,-144.5 "/>
<text text-anchor="middle" x="239" y="-129.3" font-family="Times,serif" font-size="14.00" fill="#000000">name = &#39;Jill&#39;</text>
</g>
<!-- manager1&#45;&gt;director -->
<g id="edge1" class="edge">
<title>manager1&#45;&gt;director</title>
<path fill="none" stroke="#000000" d="M265.6501,-121.3263C276.0596,-107.7827 288.1029,-92.1135 299.0487,-77.8721"/>
<polygon fill="#000000" stroke="#000000" points="302.0271,-79.7404 305.346,-69.6788 296.477,-75.4746 302.0271,-79.7404"/>
<text text-anchor="middle" x="304.5" y="-91.8" font-family="Times,serif" font-size="14.00" fill="#000000">boss</text>
</g>
<!-- manager2 -->
<g id="node3" class="node">
<title>manager2</title>
<polygon fill="none" stroke="#000000" points="372,-121.5 372,-190.5 478,-190.5 478,-121.5 372,-121.5"/>
<text text-anchor="middle" x="425" y="-175.3" font-family="Times,serif" font-size="14.00" fill="#000000">role = &#39;manager&#39;</text>
<polyline fill="none" stroke="#000000" points="372,-167.5 478,-167.5 "/>
<text text-anchor="middle" x="425" y="-152.3" font-family="Times,serif" font-size="14.00" fill="#000000">salary = $4, 450</text>
<polyline fill="none" stroke="#000000" points="372,-144.5 478,-144.5 "/>
<text text-anchor="middle" x="425" y="-129.3" font-family="Times,serif" font-size="14.00" fill="#000000">name = &#39;Ann&#39;</text>
</g>
<!-- manager2&#45;&gt;director -->
<g id="edge2" class="edge">
<title>manager2&#45;&gt;director</title>
<path fill="none" stroke="#000000" d="M398.3499,-121.3263C387.9404,-107.7827 375.8971,-92.1135 364.9513,-77.8721"/>
<polygon fill="#000000" stroke="#000000" points="367.523,-75.4746 358.654,-69.6788 361.9729,-79.7404 367.523,-75.4746"/>
<text text-anchor="middle" x="397.5" y="-91.8" font-family="Times,serif" font-size="14.00" fill="#000000">boss</text>
</g>
<!-- operator1 -->
<g id="node4" class="node">
<title>operator1</title>
<polygon fill="none" stroke="#000000" points="0,-242.5 0,-311.5 106,-311.5 106,-242.5 0,-242.5"/>
<text text-anchor="middle" x="53" y="-296.3" font-family="Times,serif" font-size="14.00" fill="#000000">role = &#39;operator&#39;</text>
<polyline fill="none" stroke="#000000" points="0,-288.5 106,-288.5 "/>
<text text-anchor="middle" x="53" y="-273.3" font-family="Times,serif" font-size="14.00" fill="#000000">salary = $2, 100</text>
<polyline fill="none" stroke="#000000" points="0,-265.5 106,-265.5 "/>
<text text-anchor="middle" x="53" y="-250.3" font-family="Times,serif" font-size="14.00" fill="#000000">name = &#39;Tim&#39;</text>
</g>
<!-- operator1&#45;&gt;manager1 -->
<g id="edge3" class="edge">
<title>operator1&#45;&gt;manager1</title>
<path fill="none" stroke="#000000" d="M106.3001,-242.3263C128.3838,-227.96 154.1442,-211.2019 177.0616,-196.2933"/>
<polygon fill="#000000" stroke="#000000" points="179.2183,-199.0657 185.6921,-190.6788 175.4011,-193.1981 179.2183,-199.0657"/>
<text text-anchor="middle" x="170.5" y="-212.8" font-family="Times,serif" font-size="14.00" fill="#000000">boss</text>
</g>
<!-- operator2 -->
<g id="node5" class="node">
<title>operator2</title>
<polygon fill="none" stroke="#000000" points="124,-242.5 124,-311.5 230,-311.5 230,-242.5 124,-242.5"/>
<text text-anchor="middle" x="177" y="-296.3" font-family="Times,serif" font-size="14.00" fill="#000000">role = &#39;operator&#39;</text>
<polyline fill="none" stroke="#000000" points="124,-288.5 230,-288.5 "/>
<text text-anchor="middle" x="177" y="-273.3" font-family="Times,serif" font-size="14.00" fill="#000000">salary = $2, 100</text>
<polyline fill="none" stroke="#000000" points="124,-265.5 230,-265.5 "/>
<text text-anchor="middle" x="177" y="-250.3" font-family="Times,serif" font-size="14.00" fill="#000000">name = &#39;Roy&#39;</text>
</g>
<!-- operator2&#45;&gt;manager1 -->
<g id="edge4" class="edge">
<title>operator2&#45;&gt;manager1</title>
<path fill="none" stroke="#000000" d="M194.7667,-242.3263C201.5767,-229.0359 209.4355,-213.6985 216.6225,-199.6721"/>
<polygon fill="#000000" stroke="#000000" points="219.7854,-201.1746 221.2307,-190.6788 213.5556,-197.9824 219.7854,-201.1746"/>
<text text-anchor="middle" x="224.5" y="-212.8" font-family="Times,serif" font-size="14.00" fill="#000000">boss</text>
</g>
<!-- operator3 -->
<g id="node6" class="node">
<title>operator3</title>
<polygon fill="none" stroke="#000000" points="248,-242.5 248,-311.5 354,-311.5 354,-242.5 248,-242.5"/>
<text text-anchor="middle" x="301" y="-296.3" font-family="Times,serif" font-size="14.00" fill="#000000">role = &#39;operator&#39;</text>
<polyline fill="none" stroke="#000000" points="248,-288.5 354,-288.5 "/>
<text text-anchor="middle" x="301" y="-273.3" font-family="Times,serif" font-size="14.00" fill="#000000">salary = $2, 100</text>
<polyline fill="none" stroke="#000000" points="248,-265.5 354,-265.5 "/>
<text text-anchor="middle" x="301" y="-250.3" font-family="Times,serif" font-size="14.00" fill="#000000">name = &#39;Helen&#39;</text>
</g>
<!-- operator3&#45;&gt;manager1 -->
<g id="edge5" class="edge">
<title>operator3&#45;&gt;manager1</title>
<path fill="none" stroke="#000000" d="M283.2333,-242.3263C276.4233,-229.0359 268.5645,-213.6985 261.3775,-199.6721"/>
<polygon fill="#000000" stroke="#000000" points="264.4444,-197.9824 256.7693,-190.6788 258.2146,-201.1746 264.4444,-197.9824"/>
<text text-anchor="middle" x="286.5" y="-212.8" font-family="Times,serif" font-size="14.00" fill="#000000">boss</text>
</g>
<!-- operator4 -->
<g id="node7" class="node">
<title>operator4</title>
<polygon fill="none" stroke="#000000" points="372,-242.5 372,-311.5 478,-311.5 478,-242.5 372,-242.5"/>
<text text-anchor="middle" x="425" y="-296.3" font-family="Times,serif" font-size="14.00" fill="#000000">role = &#39;operator&#39;</text>
<polyline fill="none" stroke="#000000" points="372,-288.5 478,-288.5 "/>
<text text-anchor="middle" x="425" y="-273.3" font-family="Times,serif" font-size="14.00" fill="#000000">salary = $2, 000</text>
<polyline fill="none" stroke="#000000" points="372,-265.5 478,-265.5 "/>
<text text-anchor="middle" x="425" y="-250.3" font-family="Times,serif" font-size="14.00" fill="#000000">name = &#39;Evelyn&#39;</text>
</g>
<!-- operator4&#45;&gt;manager2 -->
<g id="edge6" class="edge">
<title>operator4&#45;&gt;manager2</title>
<path fill="none" stroke="#000000" d="M425,-242.3263C425,-229.4156 425,-214.5732 425,-200.8775"/>
<polygon fill="#000000" stroke="#000000" points="428.5001,-200.6788 425,-190.6788 421.5001,-200.6788 428.5001,-200.6788"/>
<text text-anchor="middle" x="437.5" y="-212.8" font-family="Times,serif" font-size="14.00" fill="#000000">boss</text>
</g>
<!-- operator5 -->
<g id="node8" class="node">
<title>operator5</title>
<polygon fill="none" stroke="#000000" points="496,-242.5 496,-311.5 612,-311.5 612,-242.5 496,-242.5"/>
<text text-anchor="middle" x="554" y="-296.3" font-family="Times,serif" font-size="14.00" fill="#000000">role = &#39;operator&#39;</text>
<polyline fill="none" stroke="#000000" points="496,-288.5 612,-288.5 "/>
<text text-anchor="middle" x="554" y="-273.3" font-family="Times,serif" font-size="14.00" fill="#000000">salary = $2, 150</text>
<polyline fill="none" stroke="#000000" points="496,-265.5 612,-265.5 "/>
<text text-anchor="middle" x="554" y="-250.3" font-family="Times,serif" font-size="14.00" fill="#000000">name = &#39;Christian&#39;</text>
</g>
<!-- operator5&#45;&gt;manager2 -->
<g id="edge7" class="edge">
<title>operator5&#45;&gt;manager2</title>
<path fill="none" stroke="#000000" d="M517.0338,-242.3263C502.19,-228.403 484.951,-212.2332 469.4332,-197.6776"/>
<polygon fill="#000000" stroke="#000000" points="471.6597,-194.9674 461.9716,-190.6788 466.8708,-200.0729 471.6597,-194.9674"/>
<text text-anchor="middle" x="510.5" y="-212.8" font-family="Times,serif" font-size="14.00" fill="#000000">boss</text>
</g>
<!-- trainee1 -->
<g id="node9" class="node">
<title>trainee1</title>
<polygon fill="none" stroke="#000000" points="310,-363.5 310,-432.5 416,-432.5 416,-363.5 310,-363.5"/>
<text text-anchor="middle" x="363" y="-417.3" font-family="Times,serif" font-size="14.00" fill="#000000">role = &#39;trainee&#39;</text>
<polyline fill="none" stroke="#000000" points="310,-409.5 416,-409.5 "/>
<text text-anchor="middle" x="363" y="-394.3" font-family="Times,serif" font-size="14.00" fill="#000000">salary = $1, 150</text>
<polyline fill="none" stroke="#000000" points="310,-386.5 416,-386.5 "/>
<text text-anchor="middle" x="363" y="-371.3" font-family="Times,serif" font-size="14.00" fill="#000000">name = &#39;James&#39;</text>
</g>
<!-- trainee1&#45;&gt;operator4 -->
<g id="edge8" class="edge">
<title>trainee1&#45;&gt;operator4</title>
<path fill="none" stroke="#000000" d="M380.7667,-363.3263C387.5767,-350.0359 395.4355,-334.6985 402.6225,-320.6721"/>
<polygon fill="#000000" stroke="#000000" points="405.7854,-322.1746 407.2307,-311.6788 399.5556,-318.9824 405.7854,-322.1746"/>
<text text-anchor="middle" x="410.5" y="-333.8" font-family="Times,serif" font-size="14.00" fill="#000000">boss</text>
</g>
<!-- trainee2 -->
<g id="node10" class="node">
<title>trainee2</title>
<polygon fill="none" stroke="#000000" points="434,-363.5 434,-432.5 540,-432.5 540,-363.5 434,-363.5"/>
<text text-anchor="middle" x="487" y="-417.3" font-family="Times,serif" font-size="14.00" fill="#000000">role = &#39;trainee&#39;</text>
<polyline fill="none" stroke="#000000" points="434,-409.5 540,-409.5 "/>
<text text-anchor="middle" x="487" y="-394.3" font-family="Times,serif" font-size="14.00" fill="#000000">salary = $1, 000</text>
<polyline fill="none" stroke="#000000" points="434,-386.5 540,-386.5 "/>
<text text-anchor="middle" x="487" y="-371.3" font-family="Times,serif" font-size="14.00" fill="#000000">name = &#39;Ella&#39;</text>
</g>
<!-- trainee2&#45;&gt;operator4 -->
<g id="edge9" class="edge">
<title>trainee2&#45;&gt;operator4</title>
<path fill="none" stroke="#000000" d="M469.2333,-363.3263C462.4233,-350.0359 454.5645,-334.6985 447.3775,-320.6721"/>
<polygon fill="#000000" stroke="#000000" points="450.4444,-318.9824 442.7693,-311.6788 444.2146,-322.1746 450.4444,-318.9824"/>
<text text-anchor="middle" x="472.5" y="-333.8" font-family="Times,serif" font-size="14.00" fill="#000000">boss</text>
</g>
</g>
</svg>
